<svg xmlns="http://www.w3.org/2000/svg" viewBox="-100 -100 200 200"><path fill="#000" d="M-0.40 -5.79L-8.29 -35.57L-12.76 -95.15L2.11 -32.62ZM5.31 -4.88L15.80 -20.36L42.57 -39.39L18.81 -14.00ZM4.23 -0.58L28.86 -9.87L81.03 -12.60L27.23 0.10ZM2.46 2.85L13.57 11.58L30.07 32.12L8.98 13.34ZM0.94 7.25L10.74 34.48L14.91 88.76L0.71 32.50ZM-2.94 3.72L-13.78 21.88L-41.45 51.36L-15.86 16.96ZM-9.15 6.08L-20.43 18.59L-43.39 28.66L-22.35 12.36ZM-5.41 -2.31L-30.34 -5.56L-69.92 -34.57L-24.12 -13.67ZM-4.68 -10.55L-14.16 -19.80L-17.29 -36.07L-6.77 -21.71ZM34.26 -82.69L23.65 -79.16L21.67 -88.54ZM19.62 -75.22L26.70 -72.18L23.42 -66.45ZM81.09 19.60L84.82 8.29L94.10 12.57ZM53.45 -49.13L44.78 -42.85L40.27 -50.85ZM-73.07 -30.11L-76.14 -21.06L-83.56 -24.56Z"/></svg>
